<?xml version="1.0" encoding="UTF-8" standalone="no"?>
<!-- Created with Inkscape (http://www.inkscape.org/) -->

<svg
   xmlns:dc="http://purl.org/dc/elements/1.1/"
   xmlns:cc="http://creativecommons.org/ns#"
   xmlns:rdf="http://www.w3.org/1999/02/22-rdf-syntax-ns#"
   xmlns:svg="http://www.w3.org/2000/svg"
   xmlns="http://www.w3.org/2000/svg"
   xmlns:sodipodi="http://sodipodi.sourceforge.net/DTD/sodipodi-0.dtd"
   xmlns:inkscape="http://www.inkscape.org/namespaces/inkscape"
   width="600"
   height="600"
   viewBox="0 0 600 600"
   version="1.1"
   id="SVGRoot"
   inkscape:version="0.92.4 (5da689c313, 2019-01-14)"
   sodipodi:docname="FreeTuitionLogo.svg"
   inkscape:export-filename="C:\Users\SysAdmin\Pictures\FreeTuitionLogo.png"
   inkscape:export-xdpi="128"
   inkscape:export-ydpi="128">
  <defs
     id="defs3713" />
  <sodipodi:namedview
     id="base"
     pagecolor="#ffffff"
     bordercolor="#666666"
     borderopacity="1.0"
     inkscape:pageopacity="0.0"
     inkscape:pageshadow="2"
     inkscape:zoom="2.4135912"
     inkscape:cx="309.0735"
     inkscape:cy="333.67616"
     inkscape:document-units="px"
     inkscape:current-layer="layer1"
     showgrid="false"
     inkscape:window-width="1918"
     inkscape:window-height="2114"
     inkscape:window-x="1910"
     inkscape:window-y="0"
     inkscape:window-maximized="1"
     inkscape:snap-intersection-paths="true"
     inkscape:object-paths="true" />
  <metadata
     id="metadata3716">
    <rdf:RDF>
      <cc:Work
         rdf:about="">
        <dc:format>image/svg+xml</dc:format>
        <dc:type
           rdf:resource="http://purl.org/dc/dcmitype/StillImage" />
        <dc:title />
      </cc:Work>
    </rdf:RDF>
  </metadata>
  <g
     inkscape:groupmode="layer"
     id="layer2"
     inkscape:label="Backfill"
     transform="translate(0,200)">
    <rect
       id="rect3732"
       width="179.41992"
       height="179.41992"
       x="-521.65729"
       y="-111.65936"
       style="fill:#be5504;fill-opacity:1;stroke:none;stroke-width:3;stroke-miterlimit:4;stroke-dasharray:none;stroke-opacity:1"
       transform="scale(-1)" />
    <path
       style="fill:#be5504;fill-opacity:1;stroke:none;stroke-width:3;stroke-miterlimit:4;stroke-dasharray:none;stroke-opacity:1"
       d="M 54.423558,221.96251 H 344.1976 V -67.818393 A 289.77684,289.77682 0 0 0 54.423558,221.95568 a 289.77684,289.77682 0 0 0 0,0.007 z"
       id="path4580-1-98-7"
       inkscape:connector-curvature="0" />
    <path
       style="fill:#fffff5;stroke:none;stroke-width:3;stroke-linecap:butt;stroke-linejoin:miter;stroke-opacity:1;fill-opacity:1;stroke-miterlimit:4;stroke-dasharray:none"
       d="m 385.32145,137.69676 9.94549,10e-4 v 16.09213 l -9.94773,-9.2e-4 z"
       id="path837"
       inkscape:connector-curvature="0" />
  </g>
  <g
     inkscape:label="Layer 1"
     inkscape:groupmode="layer"
     id="layer1"
     transform="translate(0,200)">
    <rect
       id="rect3732-3"
       width="110.29844"
       height="110.29844"
       x="-521.65729"
       y="-221.95776"
       style="fill:#fffff5;fill-opacity:1;stroke:#be5504;stroke-width:3;stroke-miterlimit:4;stroke-dasharray:none;stroke-opacity:1"
       transform="scale(-1)" />
    <rect
       id="rect3732-3-9"
       width="68.16774"
       height="68.16774"
       x="-411.35886"
       y="-221.95776"
       style="fill:#fffff5;fill-opacity:1;stroke:#be5504;stroke-width:3;stroke-miterlimit:4;stroke-dasharray:none;stroke-opacity:1"
       transform="scale(-1)" />
    <path
       style="fill:#fffff5;fill-opacity:1;stroke:#be5504;stroke-width:3;stroke-miterlimit:4;stroke-dasharray:none;stroke-opacity:1"
       d="M 343.18876,-66.806721 A 178.46882,178.46689 0 0 0 164.72165,111.65845 178.46882,178.46689 0 0 0 343.18876,290.12784 Z"
       id="path4580"
       inkscape:connector-curvature="0" />
    <rect
       id="rect3732-3-9-6"
       width="42.129707"
       height="42.129707"
       x="-385.31921"
       y="-153.78909"
       style="fill:#fffff5;fill-opacity:1;stroke:#be5504;stroke-width:3;stroke-miterlimit:4;stroke-dasharray:none;stroke-opacity:1"
       transform="scale(-1)" />
    <rect
       id="rect3732-3-9-6-0"
       width="26.037424"
       height="26.037424"
       x="-411.35886"
       y="-137.69675"
       style="fill:#fffff5;fill-opacity:1;stroke:#be5504;stroke-width:3;stroke-miterlimit:4;stroke-dasharray:none;stroke-opacity:1"
       transform="scale(-1)" />
    <rect
       id="rect3732-3-9-6-0-2"
       width="16.091909"
       height="16.091909"
       x="-411.35886"
       y="-153.79001"
       style="fill:#ffffff;fill-opacity:1;stroke:#be5504;stroke-width:3;stroke-miterlimit:4;stroke-dasharray:none;stroke-opacity:1"
       transform="scale(-1)" />
    <path
       style="fill:#fffff5;fill-opacity:1;stroke:#be5504;stroke-width:3;stroke-miterlimit:4;stroke-dasharray:none;stroke-opacity:1"
       d="M 343.18956,-66.806721 V 111.65934 h 178.47029 a 178.46777,178.46777 0 0 0 -178.46609,-178.466061 178.46777,178.46777 0 0 0 -0.005,0 z"
       id="path4580-1"
       inkscape:connector-curvature="0" />
    <path
       style="fill:#fffff5;fill-opacity:1;stroke:#be5504;stroke-width:3;stroke-miterlimit:4;stroke-dasharray:none;stroke-opacity:1"
       d="M 521.65627,111.65934 H 411.35888 v 110.29998 a 110.29844,110.29844 0 0 0 110.29739,-110.29739 110.29844,110.29844 0 0 0 0,-0.002 z"
       id="path4580-1-98"
       inkscape:connector-curvature="0" />
    <path
       style="fill:#fffff5;fill-opacity:1;stroke:#be5504;stroke-width:3;stroke-miterlimit:4;stroke-dasharray:none;stroke-opacity:1"
       d="m 411.35888,221.95775 v -68.16711 h -68.16871 a 68.167742,68.167742 0 0 0 68.16709,68.16711 68.167742,68.167742 0 0 0 10e-4,0 z"
       id="path4580-1-98-9"
       inkscape:connector-curvature="0" />
    <path
       style="fill:#fffff5;fill-opacity:1;stroke:#be5504;stroke-width:3;stroke-miterlimit:4;stroke-dasharray:none;stroke-opacity:1"
       d="m 343.18988,153.78909 h 42.12934 v -42.13033 a 42.129709,42.129709 0 0 0 -42.12934,42.12931 42.129709,42.129709 0 0 0 0,8.4e-4 z"
       id="path4580-1-98-9-0"
       inkscape:connector-curvature="0" />
    <path
       style="fill:#fffff5;fill-opacity:1;stroke:#be5504;stroke-width:3;stroke-miterlimit:4;stroke-dasharray:none;stroke-opacity:1"
       d="m 385.32145,111.65958 v 26.03718 h 26.03781 a 26.037423,26.037423 0 0 0 -26.03717,-26.03718 26.037423,26.037423 0 0 0 -5.2e-4,0 z"
       id="path4580-1-98-9-4"
       inkscape:connector-curvature="0" />
    <path
       style="fill:#fffff5;fill-opacity:1;stroke:#be5504;stroke-width:3;stroke-miterlimit:4;stroke-dasharray:none;stroke-opacity:1"
       d="m 411.3587,137.69788 h -16.09176 v 16.09213 a 16.09191,16.09191 0 0 0 16.09176,-16.09174 16.09191,16.09191 0 0 0 0,-3.2e-4 z"
       id="path4580-1-98-9-4-1"
       inkscape:connector-curvature="0" />
  </g>
</svg>
